<svg xmlns="http://www.w3.org/2000/svg" width="1120" height="520" viewBox="0 0 1120 520" role="img" aria-labelledby="title desc">
  <title id="title">Margin Notes: comments beside a two-column paper</title>
  <desc id="desc">A conceptual illustration of a Zotero PDF reader. Highlights in the left and right text columns connect to white comment cards in the corresponding outer margins.</desc>
  <defs>
    <linearGradient id="surface" x2="1" y2="1">
      <stop stop-color="#edf3f8"/>
      <stop offset="1" stop-color="#e2eaf2"/>
    </linearGradient>
    <filter id="shadow" x="-20%" y="-30%" width="140%" height="170%">
      <feDropShadow dx="0" dy="5" stdDeviation="7" flood-color="#173452" flood-opacity=".10"/>
    </filter>
  </defs>
  <rect x="1" y="1" width="1118" height="518" rx="18" fill="url(#surface)" stroke="#d5e0ea"/>
  <path d="M19 1h1082a18 18 0 0 1 18 18v37H1V19A18 18 0 0 1 19 1Z" fill="#f9fbfd"/>
  <path d="M1 56h1118" stroke="#d5e0ea"/>
  <g font-family="-apple-system, BlinkMacSystemFont, Segoe UI, sans-serif">
    <circle cx="24" cy="28" r="4" fill="#c2cfdb"/>
    <circle cx="39" cy="28" r="4" fill="#c2cfdb"/>
    <circle cx="54" cy="28" r="4" fill="#c2cfdb"/>
    <text x="79" y="34" font-size="15" font-weight="600" fill="#354c64">PDF Reader</text>
    <rect x="830" y="14" width="127" height="28" rx="6" fill="#e3eef8" stroke="#c5d9ec"/>
    <text x="894" y="33" text-anchor="middle" font-size="12" font-weight="600" fill="#285779">Margin Notes</text>
    <rect x="968" y="14" width="127" height="28" rx="6" fill="#fff" stroke="#d5e0ea"/>
    <text x="1031" y="33" text-anchor="middle" font-size="12" fill="#526a80">Fit Notes</text>

    <rect x="320" y="78" width="480" height="416" rx="3" fill="#fff" stroke="#d4dee7" filter="url(#shadow)"/>
    <text x="356" y="112" font-size="11" letter-spacing="1.5" fill="#6f8294">RESEARCH PAPER</text>
    <text x="356" y="141" font-size="21" font-weight="700" fill="#263c50">A clearer way to read</text>
    <path d="M356 160h408" stroke="#cdd7e0"/>
    <text x="356" y="188" font-size="12" font-weight="700" fill="#425b72">1  Background</text>
    <text x="576" y="188" font-size="12" font-weight="700" fill="#425b72">2  Discussion</text>
    <g stroke="#c8d2dc" stroke-width="4" stroke-linecap="round">
      <path d="M356 208h178m-178 14h170m-170 14h180m-180 14h154"/>
      <path d="M576 208h178m-178 14h164m-164 14h182m-182 14h176m-176 14h150"/>
      <path d="M356 308h180m-180 14h171m-171 14h178m-178 14h152m-152 14h177m-177 14h168"/>
      <path d="M576 322h175m-175 14h184m-184 14h163m-163 14h179m-179 14h149m-149 14h181"/>
      <path d="M356 420h173m-173 14h182m-182 14h156m-156 14h178"/>
      <path d="M576 420h178m-178 14h160m-160 14h183m-183 14h155"/>
    </g>
    <rect x="351" y="265" width="186" height="22" rx="3" fill="#fff0a3"/>
    <text x="356" y="280" font-size="11" fill="#4d4b3d">Keep the important idea in view.</text>
    <rect x="571" y="280" width="194" height="22" rx="3" fill="#fbd4de"/>
    <text x="576" y="295" font-size="11" fill="#59464e">Compare findings across columns.</text>
    <text x="560" y="482" text-anchor="middle" font-size="10" fill="#8798a8">1</text>

    <path d="M351 276H299V244H276" fill="none" stroke="#d5b137" stroke-width="1.6"/>
    <circle cx="351" cy="276" r="3" fill="#d5b137"/>
    <path d="M765 291H822V295H844" fill="none" stroke="#d38298" stroke-width="1.6"/>
    <circle cx="765" cy="291" r="3" fill="#d38298"/>

    <g filter="url(#shadow)">
      <rect x="24" y="183" width="252" height="150" rx="10" fill="#fff" stroke="#cbd0d6"/>
      <path d="M27 194v128" stroke="#e1bc42" stroke-width="4" stroke-linecap="round"/>
      <rect x="844" y="240" width="252" height="150" rx="10" fill="#fff" stroke="#cbd0d6"/>
      <path d="M847 251v128" stroke="#d38298" stroke-width="4" stroke-linecap="round"/>
    </g>
    <text x="43" y="208" font-size="11" fill="#5f6368">p. 1 · Comment ↗</text>
    <text x="43" y="235" font-size="12" fill="#74818c">“Keep the important idea…”</text>
    <text x="43" y="264" font-size="15" font-weight="600" fill="#25272b">A thought, right beside</text>
    <text x="43" y="285" font-size="15" font-weight="600" fill="#25272b">the passage it belongs to.</text>
    <text x="43" y="313" font-size="11" fill="#5f6368">Double-click to edit</text>
    <text x="863" y="265" font-size="11" fill="#5f6368">p. 1 · Comment ↗</text>
    <text x="863" y="292" font-size="12" fill="#74818c">“Compare findings…”</text>
    <text x="863" y="321" font-size="15" font-weight="600" fill="#25272b">Two columns.</text>
    <text x="863" y="342" font-size="15" font-weight="600" fill="#25272b">The right margin for each note.</text>
    <text x="863" y="370" font-size="11" fill="#5f6368">Double-click to edit</text>
    <rect x="24" y="87" width="210" height="29" rx="14" fill="#dce9f4"/>
    <text x="129" y="106" text-anchor="middle" font-size="11" font-weight="600" fill="#3a627f">WHITE NOTES · BOTH PDF THEMES</text>
  </g>
</svg>
